<svg width="22" height="20" viewBox="0 0 22 20" fill="none" xmlns="http://www.w3.org/2000/svg">
  <path d="M8.50002 18.1584C8.96026 18.1584 9.33335 17.7932 9.33335 17.3426C9.33335 16.892 8.96026 16.5267 8.50002 16.5267C8.03978 16.5267 7.66669 16.892 7.66669 17.3426C7.66669 17.7932 8.03978 18.1584 8.50002 18.1584Z" stroke="#483028" stroke-width="2" stroke-linecap="round" stroke-linejoin="round"/>
  <path d="M17.6666 18.1584C18.1269 18.1584 18.5 17.7932 18.5 17.3426C18.5 16.892 18.1269 16.5267 17.6666 16.5267C17.2064 16.5267 16.8333 16.892 16.8333 17.3426C16.8333 17.7932 17.2064 18.1584 17.6666 18.1584Z" stroke="#483028" stroke-width="2" stroke-linecap="round" stroke-linejoin="round"/>
  <path d="M1.83331 1.02551H5.16665L7.39998 11.9498C7.47618 12.3254 7.6849 12.6628 7.9896 12.9029C8.2943 13.143 8.67556 13.2706 9.06665 13.2633H17.1666C17.5577 13.2706 17.939 13.143 18.2437 12.9029C18.5484 12.6628 18.7571 12.3254 18.8333 11.9498L20.1666 5.10477H5.99998" stroke="#483028" stroke-width="2" stroke-linecap="round" stroke-linejoin="round"/>
</svg>
