<svg width="20" height="18" viewBox="0 0 20 18" fill="none" xmlns="http://www.w3.org/2000/svg">
  <path d="M17.3667 3.52585C16.941 3.14734 16.4357 2.84707 15.8795 2.64221C15.3232 2.43735 14.7271 2.33191 14.125 2.33191C13.5229 2.33191 12.9268 2.43735 12.3705 2.64221C11.8143 2.84707 11.309 3.14734 10.8833 3.52585L10 4.31104L9.11666 3.52585C8.25692 2.76164 7.09086 2.33231 5.875 2.33231C4.65914 2.33231 3.49307 2.76164 2.63333 3.52585C1.77359 4.29007 1.29059 5.32657 1.29059 6.40734C1.29059 7.4881 1.77359 8.5246 2.63333 9.28882L3.51666 10.074L10 15.837L16.4833 10.074L17.3667 9.28882C17.7925 8.91048 18.1303 8.46127 18.3608 7.96686C18.5912 7.47244 18.7099 6.94251 18.7099 6.40734C18.7099 5.87216 18.5912 5.34223 18.3608 4.84781C18.1303 4.3534 17.7925 3.90419 17.3667 3.52585Z" stroke="#483028" stroke-width="2" stroke-linecap="round" stroke-linejoin="round"/>
</svg>
